<svg xmlns="http://www.w3.org/2000/svg" viewBox="0 0 96 96" role="img" aria-labelledby="title desc">
  <title id="title">Operative Steuerung Logo</title>
  <desc id="desc">Modernes Auto-Logo in Orange, Graphit und Hellgrau.</desc>
  <defs>
    <linearGradient id="orange" x1="18" x2="78" y1="20" y2="80" gradientUnits="userSpaceOnUse">
      <stop offset="0" stop-color="#ff8a2a"/>
      <stop offset="1" stop-color="#f47a20"/>
    </linearGradient>
    <filter id="shadow" x="-20%" y="-20%" width="140%" height="140%" color-interpolation-filters="sRGB">
      <feDropShadow dx="0" dy="5" stdDeviation="5" flood-color="#202428" flood-opacity=".16"/>
    </filter>
  </defs>
  <rect width="96" height="96" rx="20" fill="#ffffff"/>
  <rect x="6" y="6" width="84" height="84" rx="18" fill="#fff1e7"/>
  <path d="M20 58h8l7-15c2-4 5-6 10-6h15c5 0 8 2 11 6l7 15h3c3 0 5 2 5 5v8H10v-8c0-3 2-5 5-5h5Z" fill="url(#orange)" filter="url(#shadow)"/>
  <path d="M37 44h23c3 0 5 1 7 4l4 9H28l4-9c1-3 3-4 5-4Z" fill="#ffffff" opacity=".95"/>
  <path d="M40 47h9v8H34l3-6c1-1 2-2 3-2Zm15 0h7c1 0 3 1 4 2l3 6H55v-8Z" fill="#dde2e7"/>
  <circle cx="29" cy="70" r="8" fill="#2b3137"/>
  <circle cx="29" cy="70" r="3" fill="#ffffff"/>
  <circle cx="68" cy="70" r="8" fill="#2b3137"/>
  <circle cx="68" cy="70" r="3" fill="#ffffff"/>
  <path d="M21 58h57" stroke="#202428" stroke-width="3" stroke-linecap="round" opacity=".24"/>
  <path d="M21 27h18" stroke="#f47a20" stroke-width="6" stroke-linecap="round"/>
  <path d="M21 37h10" stroke="#2b3137" stroke-width="5" stroke-linecap="round" opacity=".82"/>
</svg>
